<mxfile host="Electron" agent="Mozilla/5.0 (Macintosh; Intel Mac OS X 10_15_7) AppleWebKit/537.36 (KHTML, like Gecko) draw.io/24.7.8 Chrome/128.0.6613.36 Electron/32.0.1 Safari/537.36" version="24.7.8">
  <diagram name="Page-1" id="YZorytDvyXF0C26H9xMn">
    <mxGraphModel dx="1805" dy="1214" grid="1" gridSize="10" guides="1" tooltips="1" connect="1" arrows="1" fold="1" page="1" pageScale="1" pageWidth="827" pageHeight="1169" math="0" shadow="0">
      <root>
        <mxCell id="0" />
        <mxCell id="1" parent="0" />
        <mxCell id="jbjIRwiRgKOgK7Vykl7s-1" value="OpenSearch" style="shadow=0;dashed=0;html=1;strokeColor=none;fillColor=#4495D1;labelPosition=center;verticalLabelPosition=top;verticalAlign=bottom;align=center;outlineConnect=0;shape=mxgraph.veeam.2d.veeam_backup_search_server;" vertex="1" parent="1">
          <mxGeometry x="640" y="390" width="86" height="90" as="geometry" />
        </mxCell>
        <mxCell id="jbjIRwiRgKOgK7Vykl7s-2" value="Alfresco Repository" style="sketch=0;pointerEvents=1;shadow=0;dashed=0;html=1;strokeColor=none;fillColor=#005F4B;labelPosition=center;verticalLabelPosition=top;verticalAlign=bottom;align=center;outlineConnect=0;shape=mxgraph.veeam2.veeam_repository;" vertex="1" parent="1">
          <mxGeometry x="120" y="395" width="80" height="80" as="geometry" />
        </mxCell>
        <mxCell id="jbjIRwiRgKOgK7Vykl7s-3" value="&lt;font style=&quot;font-size: 22px;&quot;&gt;Alfresco Open&lt;/font&gt;&lt;div style=&quot;font-size: 22px;&quot;&gt;&lt;font style=&quot;font-size: 22px;&quot;&gt;Alfresco Search Service&lt;/font&gt;&lt;/div&gt;&lt;div style=&quot;font-size: 22px;&quot;&gt;&lt;font style=&quot;font-size: 22px;&quot;&gt;for Community Edition&lt;/font&gt;&lt;/div&gt;&lt;div style=&quot;font-size: 22px;&quot;&gt;&lt;font style=&quot;font-size: 22px;&quot;&gt;&lt;br&gt;&lt;/font&gt;&lt;/div&gt;&lt;div style=&quot;&quot;&gt;&lt;font size=&quot;1&quot; style=&quot;&quot;&gt;&lt;i style=&quot;font-size: 18px;&quot;&gt;Spring Boot App&lt;/i&gt;&lt;/font&gt;&lt;/div&gt;" style="whiteSpace=wrap;html=1;aspect=fixed;" vertex="1" parent="1">
          <mxGeometry x="280" y="480" width="320" height="320" as="geometry" />
        </mxCell>
        <mxCell id="jbjIRwiRgKOgK7Vykl7s-4" value="" style="endArrow=open;html=1;rounded=0;endFill=0;" edge="1" parent="1" source="jbjIRwiRgKOgK7Vykl7s-2" target="jbjIRwiRgKOgK7Vykl7s-1">
          <mxGeometry width="50" height="50" relative="1" as="geometry">
            <mxPoint x="390" y="640" as="sourcePoint" />
            <mxPoint x="440" y="590" as="targetPoint" />
          </mxGeometry>
        </mxCell>
        <mxCell id="jbjIRwiRgKOgK7Vykl7s-5" value="" style="endArrow=open;html=1;rounded=0;entryX=0;entryY=0.5;entryDx=0;entryDy=0;endFill=0;" edge="1" parent="1" source="jbjIRwiRgKOgK7Vykl7s-2" target="jbjIRwiRgKOgK7Vykl7s-3">
          <mxGeometry width="50" height="50" relative="1" as="geometry">
            <mxPoint x="390" y="640" as="sourcePoint" />
            <mxPoint x="440" y="590" as="targetPoint" />
            <Array as="points">
              <mxPoint x="160" y="640" />
              <mxPoint x="220" y="640" />
            </Array>
          </mxGeometry>
        </mxCell>
        <mxCell id="jbjIRwiRgKOgK7Vykl7s-6" value="" style="endArrow=open;html=1;rounded=0;endFill=0;exitX=1;exitY=0.5;exitDx=0;exitDy=0;" edge="1" parent="1" source="jbjIRwiRgKOgK7Vykl7s-3" target="jbjIRwiRgKOgK7Vykl7s-1">
          <mxGeometry width="50" height="50" relative="1" as="geometry">
            <mxPoint x="640" y="640" as="sourcePoint" />
            <mxPoint x="760" y="805" as="targetPoint" />
            <Array as="points">
              <mxPoint x="650" y="640" />
              <mxPoint x="683" y="640" />
            </Array>
          </mxGeometry>
        </mxCell>
        <mxCell id="jbjIRwiRgKOgK7Vykl7s-8" value="&lt;h1 style=&quot;margin-top: 0px;&quot;&gt;&lt;span style=&quot;font-size: 18px;&quot;&gt;OpenSearch REST API&lt;/span&gt;&lt;/h1&gt;&lt;div&gt;&lt;font style=&quot;font-size: 14px;&quot;&gt;Models&lt;/font&gt;&lt;/div&gt;&lt;div&gt;&lt;font style=&quot;font-size: 14px;&quot;&gt;Search&lt;/font&gt;&lt;/div&gt;" style="text;html=1;whiteSpace=wrap;overflow=hidden;rounded=0;" vertex="1" parent="1">
          <mxGeometry x="330" y="310" width="200" height="120" as="geometry" />
        </mxCell>
        <mxCell id="jbjIRwiRgKOgK7Vykl7s-9" value="&lt;h1 style=&quot;margin-top: 0px;&quot;&gt;&lt;span style=&quot;font-size: 18px;&quot;&gt;Alfresco SOLR REST API&lt;/span&gt;&lt;/h1&gt;&lt;div&gt;&lt;span style=&quot;font-size: 14px;&quot;&gt;Metadata&lt;/span&gt;&lt;/div&gt;&lt;div&gt;&lt;span style=&quot;font-size: 14px;&quot;&gt;Content&lt;/span&gt;&lt;/div&gt;&lt;div&gt;&lt;span style=&quot;font-size: 14px;&quot;&gt;&lt;i&gt;Path&lt;/i&gt;&lt;/span&gt;&lt;/div&gt;" style="text;html=1;whiteSpace=wrap;overflow=hidden;rounded=0;" vertex="1" parent="1">
          <mxGeometry x="45" y="650" width="230" height="110" as="geometry" />
        </mxCell>
        <mxCell id="jbjIRwiRgKOgK7Vykl7s-10" value="&lt;h1 style=&quot;margin-top: 0px;&quot;&gt;&lt;span style=&quot;font-size: 18px;&quot;&gt;OpenSearch REST API&lt;/span&gt;&lt;/h1&gt;&lt;div&gt;&lt;font style=&quot;font-size: 14px;&quot;&gt;Indexing&lt;/font&gt;&lt;/div&gt;" style="text;html=1;whiteSpace=wrap;overflow=hidden;rounded=0;" vertex="1" parent="1">
          <mxGeometry x="620" y="650" width="230" height="110" as="geometry" />
        </mxCell>
        <mxCell id="jbjIRwiRgKOgK7Vykl7s-12" value="" style="points=[[0.145,0.145,0],[0.5,0,0],[0.855,0.145,0],[1,0.5,0],[0.855,0.855,0],[0.5,1,0],[0.145,0.855,0],[0,0.5,0]];shape=mxgraph.bpmn.event;html=1;verticalLabelPosition=bottom;labelBackgroundColor=#ffffff;verticalAlign=top;align=center;perimeter=ellipsePerimeter;outlineConnect=0;aspect=fixed;outline=standard;symbol=timer;" vertex="1" parent="1">
          <mxGeometry x="180" y="570" width="50" height="50" as="geometry" />
        </mxCell>
      </root>
    </mxGraphModel>
  </diagram>
</mxfile>
